<svg xmlns="http://www.w3.org/2000/svg" width="77" height="36" viewBox="0 0 77 36" fill="none">
  <path d="M7.58971 6.12031C7.58971 5.46059 7.26325 5.07292 6.61034 4.9641L7.58971 3.8623H6.59673L5.42692 5.15453V5.83466C5.66156 5.68843 5.91661 5.61702 6.18866 5.61702C6.59673 5.61702 6.80077 5.77005 6.80077 6.0795C6.80077 6.32435 6.67835 6.44677 6.4335 6.44677H4.92363L4.50195 7.23572H6.51512C7.23265 7.23572 7.58971 6.86505 7.58971 6.12031Z" fill="#FE9F15"/>
  <path d="M14.67 9.14003C14.67 9.49369 14.5986 9.74534 14.4523 9.89497C14.3061 10.0446 14.0613 10.1194 13.7178 10.1194H13.3097H12.4936H12.0855C11.742 10.1194 11.4938 10.0446 11.3442 9.89497C11.1945 9.74534 11.1197 9.49369 11.1197 9.14003V2.99512L9.41941 3.89288V9.12643C9.41941 9.48009 9.348 9.73514 9.20177 9.88816C9.05554 10.0412 8.8107 10.1194 8.46724 10.1194H4.04304C3.69957 10.1194 3.45133 10.0446 3.3017 9.89497C3.15207 9.74534 3.07726 9.49029 3.07726 9.12643V6.95003L1.37695 7.84779V9.23525C1.37695 9.95278 1.57079 10.5343 1.96186 10.99C2.39714 11.5069 2.99905 11.7653 3.77099 11.7653H8.62367C9.29359 11.7653 9.84789 11.5885 10.2832 11.2348C10.7082 11.5885 11.2557 11.7653 11.9291 11.7653H12.5004H13.3165H13.8878C14.602 11.7653 15.1835 11.5613 15.6289 11.1532C16.1356 10.6907 16.3907 10.048 16.3907 9.22165V5.72921L14.6768 6.62697V9.14003H14.67Z" fill="#1E1E1E"/>
  <path d="M15.3235 13C14.725 13 14.4258 13.2959 14.4258 13.8842C14.4258 14.1664 14.5074 14.3875 14.6706 14.5507C14.8339 14.7139 15.0515 14.7955 15.3235 14.7955C15.9119 14.7955 16.2077 14.4929 16.2077 13.8842C16.2077 13.6121 16.1295 13.3979 15.9697 13.238C15.8098 13.0782 15.5956 13 15.3235 13Z" fill="#FE9F15"/>
  <path d="M13.2317 13C12.6332 13 12.334 13.2959 12.334 13.8842C12.334 14.1664 12.4156 14.3875 12.5788 14.5507C12.7421 14.7139 12.9597 14.7955 13.2317 14.7955C13.8201 14.7955 14.1159 14.4929 14.1159 13.8842C14.1159 13.6121 14.0377 13.3979 13.8779 13.238C13.718 13.0782 13.5038 13 13.2317 13Z" fill="#FE9F15"/>
  <path d="M29.4583 6.37873C28.9414 6.02507 28.3429 5.82103 27.6628 5.76662L30.1384 2.99512H28.4109L25.653 6.06587V7.71177C26.1597 7.53154 26.6392 7.43972 27.0949 7.43972C27.7036 7.43972 28.1933 7.59275 28.5708 7.9022C28.9482 8.21166 29.1353 8.60953 29.1353 9.09922V9.18084C29.1353 9.80655 28.819 10.1194 28.1831 10.1194H25.2892H24.473H23.6161V8.01103C23.6161 7.2969 23.4222 6.71539 23.0312 6.26991C22.5789 5.75301 21.9498 5.49457 21.1404 5.49457C20.3515 5.49457 19.719 5.74962 19.2361 6.25631C18.692 6.83781 18.4199 7.62336 18.4199 8.62314C18.4199 9.38488 18.6342 10.031 19.0592 10.5683C19.5659 11.2042 20.2869 11.5681 21.222 11.6701C21.3036 11.6803 21.4227 11.6939 21.5757 11.7109C21.7287 11.7211 21.8443 11.7279 21.9158 11.7381C21.8886 12.0272 21.7287 12.2754 21.4329 12.4862C21.137 12.6937 20.8004 12.7991 20.4195 12.7991C19.9298 12.7991 19.4401 12.6597 18.9504 12.3774V13.8601C19.4945 14.1695 20.0522 14.3226 20.6235 14.3226C21.3479 14.3226 21.9838 14.1219 22.5279 13.7241C23.1876 13.2344 23.5515 12.5815 23.6161 11.7653H24.473H25.2892H28.3599C29.0673 11.7653 29.642 11.5715 30.0874 11.1804C30.5941 10.7179 30.8492 10.0786 30.8492 9.26245V9.08562C30.8458 7.90561 30.3833 7.00444 29.4583 6.37873ZM21.9158 10.1024C21.6335 10.0854 21.4295 10.0616 21.3036 10.0344C20.5045 9.93577 20.1066 9.44608 20.1066 8.56532C20.1066 7.57914 20.4501 7.08265 21.1404 7.08265C21.6573 7.08265 21.9158 7.38191 21.9158 7.98042V10.1024Z" fill="#1E1E1E"/>
  <path d="M45.8265 6.26948C45.1566 5.75259 44.4662 5.49414 43.7589 5.49414C42.7965 5.49414 41.9362 5.91242 41.1744 6.74557V8.25544C42.0348 7.4665 42.8271 7.07203 43.5549 7.07203C44.4322 7.07203 45.1804 7.61273 45.7993 8.69072C44.8573 9.6429 43.5889 10.119 41.994 10.119H40.7834H39.9672H39.5592C39.2157 10.119 38.9708 10.0442 38.8246 9.89454C38.6784 9.74491 38.607 9.49327 38.607 9.1396V5.72878L38.5934 5.74239V5.72878L38.0085 6.04164L36.8931 6.62655V11.0303C36.8931 11.6016 36.7536 12.0471 36.4782 12.3702C36.2027 12.6932 35.8151 12.8531 35.3152 12.8531C34.8629 12.8531 34.4004 12.7205 33.9277 12.4586V13.9549C34.4718 14.2439 35.0295 14.3902 35.6008 14.3902C36.3354 14.3902 36.9645 14.1623 37.4916 13.71C38.0731 13.2033 38.4199 12.513 38.539 11.6425C38.8008 11.7241 39.0865 11.7649 39.3959 11.7649H39.9672H40.7834H41.9804C43.1298 11.7649 44.1942 11.537 45.1668 11.0848C46.1393 10.6325 46.9555 9.98976 47.605 9.15321V8.47308C47.0915 7.52091 46.4964 6.78637 45.8265 6.26948Z" fill="#1E1E1E"/>
  <path d="M44.181 13C43.9089 13 43.6913 13.0816 43.528 13.2448C43.3648 13.4081 43.2832 13.6223 43.2832 13.8842C43.2832 14.1664 43.3648 14.3875 43.528 14.5507C43.6913 14.7139 43.9089 14.7955 44.181 14.7955C44.7693 14.7955 45.0651 14.4929 45.0651 13.8842C45.0651 13.6121 44.9869 13.3979 44.8271 13.238C44.6673 13.0782 44.453 13 44.181 13Z" fill="#FE9F15"/>
  <path d="M50.6665 11.0277C50.6665 11.599 50.5271 12.0444 50.2516 12.3675C49.9762 12.6906 49.5885 12.8504 49.0886 12.8504C48.6363 12.8504 48.1739 12.7178 47.7012 12.4559V13.9522C48.2453 14.2412 48.803 14.3875 49.3743 14.3875C50.2516 14.3875 50.959 14.0848 51.4963 13.4761C52.0778 12.8232 52.3668 11.973 52.3668 10.9222V5.72949L50.6665 6.64086V11.0277Z" fill="#1E1E1E"/>
  <path d="M65.6052 2.53269C66.1391 2.53269 66.4078 2.25724 66.4078 1.70294C66.4078 1.16904 66.1391 0.900391 65.6052 0.900391C65.0611 0.900391 64.7891 1.16904 64.7891 1.70294C64.7891 2.25724 65.0611 2.53269 65.6052 2.53269Z" fill="#FE9F15"/>
  <path d="M65.7676 3.62049C65.7676 3.90274 65.8492 4.12378 66.0124 4.28701C66.1757 4.45024 66.3933 4.53185 66.6653 4.53185C67.2536 4.53185 67.5495 4.2292 67.5495 3.62049C67.5495 3.34844 67.4713 3.1342 67.3115 2.97438C67.1516 2.81455 66.9374 2.73633 66.6653 2.73633C66.3933 2.73633 66.1757 2.81794 66.0124 2.98117C65.8492 3.1444 65.7676 3.35864 65.7676 3.62049Z" fill="#FE9F15"/>
  <path d="M64.5716 4.53185C65.1599 4.53185 65.4558 4.2292 65.4558 3.62049C65.4558 3.34844 65.3775 3.1342 65.2177 2.97438C65.0579 2.81455 64.8436 2.73633 64.5716 2.73633C64.2995 2.73633 64.0819 2.81794 63.9187 2.98117C63.7554 3.1444 63.6738 3.35864 63.6738 3.62049C63.6738 3.90274 63.7554 4.12378 63.9187 4.28701C64.0819 4.45024 64.2995 4.53185 64.5716 4.53185Z" fill="#FE9F15"/>
  <path d="M75.7591 4.3551C76.3474 4.3551 76.6432 4.05244 76.6432 3.44373C76.6432 3.17168 76.565 2.95744 76.4052 2.79761C76.2454 2.63778 76.0311 2.55957 75.7591 2.55957C75.1606 2.55957 74.8613 2.85542 74.8613 3.44373C74.8613 3.72598 74.9429 3.94702 75.1062 4.11025C75.2694 4.27348 75.487 4.3551 75.7591 4.3551Z" fill="#FE9F15"/>
  <path d="M74.8605 9.13959C74.8605 9.49326 74.7891 9.7449 74.6429 9.89453C74.4966 10.0442 74.2518 10.119 73.9083 10.119H73.5003H72.6841H72.2488C71.8306 10.119 71.5347 10.0272 71.3579 9.84692C71.181 9.66669 71.0926 9.35723 71.0926 8.92195V5.72877L69.3787 6.62654V9.143C69.3787 9.49666 69.3073 9.74831 69.1611 9.89793C69.0149 10.0476 68.77 10.1224 68.4265 10.1224H67.5016C67.1581 10.1224 66.9099 10.0476 66.7602 9.89793C66.6106 9.74831 66.5358 9.49666 66.5358 9.143V6.08584L64.8219 6.9972V9.1464C64.8219 9.50006 64.7505 9.75171 64.6043 9.90133C64.458 10.051 64.2132 10.1258 63.8697 10.1258H62.9447C62.6013 10.1258 62.3564 10.051 62.2102 9.90133C62.064 9.75171 61.9926 9.50006 61.9926 9.1464V6.45651L60.2787 7.35427V9.14979C60.2787 9.50346 60.2039 9.7551 60.0542 9.90473C59.9046 10.0544 59.6564 10.1292 59.3129 10.1292H58.6872H57.871H57.463C57.1195 10.1292 56.8746 10.0544 56.7284 9.90473C56.5822 9.7551 56.5108 9.50346 56.5108 9.14979V3.00488L54.7969 3.90265V9.23141C54.7969 9.94894 54.9907 10.5304 55.3818 10.9861C55.8341 11.5132 56.4734 11.7751 57.2997 11.7751H57.871H58.6872H59.4897C60.1596 11.7751 60.7071 11.5744 61.1356 11.1766C61.5607 11.5744 62.1082 11.7751 62.7815 11.7751H64.1282C64.7709 11.7649 65.2878 11.5676 65.6788 11.1766C66.1039 11.5744 66.6514 11.7751 67.3247 11.7751H68.6714C69.3583 11.7649 69.9092 11.5472 70.3173 11.1222C70.7798 11.5574 71.3919 11.7751 72.1536 11.7751H72.6841H73.5003H74.0716C74.7857 11.7751 75.3672 11.571 75.8127 11.163C76.3194 10.7005 76.5744 10.0578 76.5744 9.23141V5.73898L74.8605 6.63674V9.13959Z" fill="#1E1E1E"/>
  <path d="M73.6634 4.3551C74.2517 4.3551 74.5476 4.05244 74.5476 3.44373C74.5476 3.17168 74.4693 2.95744 74.3095 2.79761C74.1497 2.63778 73.9354 2.55957 73.6634 2.55957C73.0649 2.55957 72.7656 2.85542 72.7656 3.44373C72.7656 3.72598 72.8472 3.94702 73.0105 4.11025C73.1737 4.27348 73.3913 4.3551 73.6634 4.3551Z" fill="#FE9F15"/>
  <path d="M7.0471 31.8627C6.36358 32.5463 5.56103 32.8897 4.63606 32.8897C3.30982 32.8897 2.32024 32.3966 1.67072 31.4071C1.20144 30.6963 0.966797 29.8666 0.966797 28.911C0.966797 27.6664 1.28986 26.6666 1.92917 25.9083C2.56509 25.1499 3.44585 24.7725 4.57485 24.7725C5.3672 24.7725 6.15614 25.1057 6.94848 25.7722L6.31937 26.7992C5.72766 26.3708 5.18696 26.1565 4.70067 26.1565C4.02395 26.1565 3.50366 26.4422 3.13299 27.0101C2.80993 27.4964 2.6501 28.1323 2.6501 28.9144C2.6501 29.6047 2.84054 30.1998 3.21801 30.6929C3.62268 31.2132 4.15998 31.4717 4.8367 31.4717C5.28218 31.4717 5.80928 31.2778 6.41799 30.8902L7.0471 31.8627Z" fill="#FE9F15"/>
  <path d="M8.38086 25.6231L9.93834 24.7695V27.7961C10.071 27.541 10.343 27.3234 10.7545 27.1398C11.0265 27.0241 11.2816 26.9663 11.5196 26.9663C12.2372 26.9663 12.7575 27.1636 13.0839 27.5546C13.4104 27.9457 13.5702 28.5748 13.5702 29.4386V32.7372H12.0127V29.4998C12.0127 28.6938 11.6659 28.2892 10.9755 28.2892C10.4722 28.2892 10.1254 28.4286 9.93834 28.7108V32.7406H8.38086V25.6231Z" fill="#FE9F15"/>
  <path d="M19.7138 32.7407H18.4658L18.3434 32.2102C17.7993 32.6625 17.2484 32.8903 16.6873 32.8903C15.4426 32.8903 14.8203 32.285 14.8203 31.0744C14.8203 30.4725 15.0788 30.0032 15.5991 29.6665C16.1261 29.3197 16.9049 29.1462 17.9353 29.1462H18.1937V29.1224C18.1937 28.7688 18.1189 28.5239 17.9727 28.3947C17.8231 28.2621 17.5578 28.1975 17.1701 28.1975C16.626 28.1975 16.1295 28.3709 15.6739 28.7177C15.5242 28.4457 15.3848 28.177 15.2522 27.9152C15.7215 27.5513 16.133 27.3065 16.4832 27.1807C16.8335 27.0514 17.2518 26.9902 17.738 26.9902C19.0575 26.9902 19.7138 27.8132 19.7138 29.4625V32.7407ZM18.1427 30.095H17.9591C17.4898 30.095 17.1089 30.1766 16.8233 30.3432C16.5342 30.5065 16.3914 30.7275 16.3914 30.9996C16.3914 31.5097 16.6124 31.7647 17.0579 31.7647C17.33 31.7647 17.568 31.6865 17.7754 31.5301C17.9829 31.3736 18.1053 31.1764 18.1461 30.9384V30.095H18.1427Z" fill="#FE9F15"/>
  <path d="M22.7179 27.1291L22.8675 27.6222C22.9491 27.4488 23.1089 27.2991 23.3436 27.1699C23.5782 27.0407 23.8197 26.9795 24.0679 26.9795C24.8093 26.9795 25.3602 27.3298 25.724 28.0303L24.4148 28.7478C24.1427 28.435 23.8537 28.2785 23.551 28.2785C23.2722 28.2785 23.0647 28.4214 22.9321 28.7104V32.7401H21.3984V27.1291H22.7179Z" fill="#FE9F15"/>
  <path d="M29.8587 32.06C29.488 32.6109 28.9643 32.8864 28.291 32.8864C27.468 32.8864 26.8287 32.5939 26.3764 32.009C25.9888 31.5159 25.7949 30.8902 25.7949 30.1319C25.7949 29.0539 26.1078 28.2207 26.7335 27.6358C27.2096 27.2005 27.7741 26.9795 28.427 26.9795C28.9473 26.9795 29.386 27.1087 29.7498 27.3638C29.9879 27.527 30.1069 27.6528 30.1069 27.7344L30.2293 27.1291H31.4263V32.1586C31.4263 33.1074 31.1917 33.8351 30.7224 34.3452C30.2599 34.8485 29.6036 35.1002 28.7467 35.1002C27.8557 35.1002 27.0872 34.8043 26.4376 34.2092L26.8321 33.4169C27.3354 33.7467 27.8999 33.91 28.5256 33.91C29.4132 33.9134 29.8587 33.2978 29.8587 32.06ZM29.8587 29.0335C29.8247 28.7784 29.6988 28.5574 29.4812 28.3737C29.2635 28.1901 29.0221 28.0949 28.7603 28.0949C28.3488 28.0949 28.0189 28.2581 27.7707 28.588C27.5224 28.9178 27.4 29.3633 27.4 29.921C27.4 31.1486 27.8047 31.7642 28.6106 31.7642C28.9473 31.7642 29.2397 31.6349 29.488 31.3731C29.7362 31.1112 29.8587 30.8052 29.8587 30.4515V29.0335Z" fill="#FE9F15"/>
  <path d="M38.2978 30.4418H34.4415C34.4755 30.8193 34.6285 31.1356 34.904 31.3872C35.1794 31.6388 35.5059 31.7647 35.8867 31.7647C36.4206 31.7647 36.9817 31.6014 37.5666 31.2716L37.9611 32.0979C37.3694 32.625 36.6281 32.8903 35.7371 32.8903C34.7815 32.8903 34.0368 32.6182 33.4995 32.0741C32.9894 31.564 32.7344 30.8601 32.7344 29.9623C32.7344 29.0816 33.0234 28.3504 33.5981 27.7757C34.1184 27.2486 34.7747 26.9834 35.5739 26.9834C36.4649 26.9834 37.1552 27.2827 37.6483 27.8846C38.0767 28.3947 38.291 29.0578 38.291 29.8739V30.4418H38.2978ZM34.3565 29.2924H36.7403C36.6995 28.4865 36.3084 28.0818 35.5671 28.0818C34.8496 28.0818 34.4483 28.4865 34.3565 29.2924Z" fill="#FE9F15"/>
  <path d="M40.9308 27.1291L41.0804 27.6222C41.162 27.4488 41.3218 27.2991 41.5565 27.1699C41.7911 27.0407 42.0326 26.9795 42.2808 26.9795C43.0221 26.9795 43.573 27.3298 43.9369 28.0303L42.6277 28.7478C42.3556 28.435 42.0666 28.2785 41.7639 28.2785C41.4851 28.2785 41.2776 28.4214 41.145 28.7104V32.7401H39.6113V27.1291H40.9308Z" fill="#FE9F15"/>
  <path d="M51.5704 32.8392C51.3392 32.8732 51.1249 32.8902 50.9277 32.8902C49.7171 32.8902 48.7887 32.4549 48.146 31.581C47.6359 30.8804 47.3809 30.0099 47.3809 28.9727C47.3809 27.6805 47.7277 26.6399 48.418 25.8577C49.054 25.1334 49.8871 24.7695 50.9277 24.7695C52.1315 24.7695 53.0565 25.2558 53.7094 26.2284C54.2195 26.9867 54.4745 27.9015 54.4745 28.9727C54.4745 30.5064 53.9679 31.6286 52.9545 32.3461C53.434 32.88 53.9542 33.4547 54.5256 34.0634H52.6348L51.5704 32.8392ZM50.9277 31.53C52.1621 31.53 52.781 30.6764 52.781 28.9727C52.781 28.0511 52.6042 27.337 52.2505 26.8337C51.9207 26.3814 51.4786 26.1536 50.9277 26.1536C50.336 26.1536 49.8769 26.4018 49.5504 26.8949C49.224 27.388 49.0608 28.0817 49.0608 28.9693C49.0608 30.6764 49.6831 31.53 50.9277 31.53Z" fill="#32B1DB"/>
  <path d="M59.4677 32.0977C59.0562 32.6248 58.4917 32.8901 57.7741 32.8901C57.0668 32.8901 56.5601 32.7064 56.2609 32.3392C55.9616 31.9719 55.8086 31.3564 55.8086 30.4926V27.1328H57.3423V30.0879C57.3423 30.6491 57.4171 31.0401 57.5633 31.268C57.7129 31.4958 57.968 31.608 58.3284 31.608C58.4849 31.608 58.6617 31.5672 58.8589 31.4856C59.0562 31.404 59.1752 31.3156 59.216 31.2272V27.1362H60.7735V32.7472H59.6105L59.4745 32.1045H59.4677V32.0977Z" fill="#32B1DB"/>
  <path d="M62.2109 25.6977C62.2109 25.4358 62.3028 25.2046 62.4898 25.0107C62.6768 24.8169 62.8945 24.7217 63.1495 24.7217C63.4216 24.7217 63.6528 24.8169 63.8466 25.0073C64.0405 25.1978 64.1357 25.429 64.1357 25.6977C64.1357 25.9867 64.0439 26.2214 63.8568 26.4016C63.6732 26.5818 63.4352 26.6736 63.1461 26.6736C62.8741 26.6736 62.6496 26.5818 62.4728 26.3948C62.2993 26.2111 62.2109 25.9765 62.2109 25.6977ZM63.9657 27.1293V32.7403H62.3946V27.1293H63.9657Z" fill="#32B1DB"/>
  <path d="M70.2822 32.0226C69.6973 32.6007 69.007 32.8864 68.2078 32.8864C67.2523 32.8864 66.4939 32.5803 65.9328 31.9716C65.4465 31.4377 65.2051 30.7644 65.2051 29.9584C65.2051 29.0505 65.5179 28.3091 66.1437 27.7344C66.6878 27.2311 67.3509 26.9795 68.133 26.9795C68.9968 26.9795 69.6939 27.2515 70.221 27.7956L69.7517 28.6356C69.33 28.2649 68.8743 28.0779 68.3813 28.0779C67.9188 28.0779 67.5413 28.2581 67.2454 28.6152C66.9496 28.9723 66.8 29.4313 66.8 29.9924C66.8 30.5127 66.9462 30.9378 67.2387 31.2711C67.5311 31.6043 67.9052 31.771 68.3575 31.771C68.9016 31.771 69.3674 31.5703 69.7551 31.1657L70.2822 32.0226Z" fill="#32B1DB"/>
  <path d="M76.6954 27.1296L74.0395 29.391C75.0291 30.8736 75.7908 31.989 76.3247 32.7406H74.57C73.8762 31.5538 73.356 30.6662 72.9989 30.0711V32.7406H71.4414V25.5857L72.9989 24.7695V28.4898C73.4036 28.1701 73.9409 27.7145 74.6176 27.1296H76.6954Z" fill="#32B1DB"/>
  <path d="M3.01773 17.499H1.32422V22.3585H3.01773V17.499Z" fill="#7C7C7C"/>
  <path d="M4.74129 17.499H3.89453V22.3585H4.74129V17.499Z" fill="#7C7C7C"/>
  <path d="M9.1896 17.499H7.49609V22.3585H9.1896V17.499Z" fill="#7C7C7C"/>
  <path d="M13.7677 17.499H12.0742V22.3585H13.7677V17.499Z" fill="#7C7C7C"/>
  <path d="M16.6486 17.499H14.9551V22.3585H16.6486V17.499Z" fill="#7C7C7C"/>
  <path d="M10.9151 17.499H10.0684V22.3585H10.9151V17.499Z" fill="#7C7C7C"/>
  <path d="M6.38777 17.499H5.54102V22.3585H6.38777V17.499Z" fill="#7C7C7C"/>
  <path d="M47.1095 17.499H45.416V22.3585H47.1095V17.499Z" fill="#7C7C7C"/>
  <path d="M48.835 17.499H47.9883V22.3585H48.835V17.499Z" fill="#7C7C7C"/>
  <path d="M53.2833 17.499H51.5898V22.3585H53.2833V17.499Z" fill="#7C7C7C"/>
  <path d="M57.8595 17.499H56.166V22.3585H57.8595V17.499Z" fill="#7C7C7C"/>
  <path d="M60.7404 17.499H59.0469V22.3585H60.7404V17.499Z" fill="#7C7C7C"/>
  <path d="M55.0069 17.499H54.1602V22.3585H55.0069V17.499Z" fill="#7C7C7C"/>
  <path d="M50.4796 17.499H49.6328V22.3585H50.4796V17.499Z" fill="#7C7C7C"/>
  <path d="M21.8439 17.499H20.1504V22.3585H21.8439V17.499Z" fill="#7C7C7C"/>
  <path d="M23.5675 17.499H22.7207V22.3585H23.5675V17.499Z" fill="#7C7C7C"/>
  <path d="M28.0158 17.499H26.3223V22.3585H28.0158V17.499Z" fill="#7C7C7C"/>
  <path d="M32.5939 17.499H30.9004V22.3585H32.5939V17.499Z" fill="#7C7C7C"/>
  <path d="M35.4728 17.499H33.7793V22.3585H35.4728V17.499Z" fill="#7C7C7C"/>
  <path d="M29.7393 17.499H28.8926V22.3585H29.7393V17.499Z" fill="#7C7C7C"/>
  <path d="M25.2139 17.499H24.3672V22.3585H25.2139V17.499Z" fill="#7C7C7C"/>
  <path d="M37.6319 17.499H36.7852V22.3585H37.6319V17.499Z" fill="#7C7C7C"/>
  <path d="M42.0802 17.499H40.3867V22.3585H42.0802V17.499Z" fill="#7C7C7C"/>
  <path d="M39.2784 17.499H38.4316V22.3585H39.2784V17.499Z" fill="#7C7C7C"/>
  <path d="M65.59 17.499H63.8965V22.3585H65.59V17.499Z" fill="#7C7C7C"/>
  <path d="M67.3175 17.499H66.4707V22.3585H67.3175V17.499Z" fill="#7C7C7C"/>
  <path d="M71.7619 17.499H70.0684V22.3585H71.7619V17.499Z" fill="#7C7C7C"/>
  <path d="M76.3419 17.499H74.6484V22.3585H76.3419V17.499Z" fill="#7C7C7C"/>
  <path d="M73.4893 17.499H72.6426V22.3585H73.4893V17.499Z" fill="#7C7C7C"/>
  <path d="M68.962 17.499H68.1152V22.3585H68.962V17.499Z" fill="#7C7C7C"/>
</svg>