<svg xmlns="http://www.w3.org/2000/svg" width="26" height="36" viewBox="0 0 26 36" fill="none">
  <path d="M26 15.3545H17.4574L13.5059 20.3621H14.6784L5.74414 35.9996L26 15.3545Z" fill="#68C7E1"/>
  <path d="M17.457 15.3554H15.7911C15.7911 15.3554 15.7638 15.3554 15.7489 15.3554C16.9785 13.6572 24.6733 0.00292969 24.6733 0.00292969L4.41992 20.3629H13.5054L17.457 15.3554Z" fill="#FEBE38"/>
  <path d="M8.83793 30.583L5.74414 35.9996L12.6928 28.9443L8.83793 30.583Z" fill="#FD803A"/>
  <path d="M20.3008 21.1628L26 15.3545H17.4574L13.5059 20.3621H14.6784L14.2223 21.1628H20.3008Z" fill="#32B1DB"/>
  <path d="M14.5459 24.7774L12.2503 24.6113L10.748 27.2415L14.5459 24.7774Z" fill="#32B1DB"/>
  <path d="M13.1653 16.2027H14.913L11.6035 20.3625H13.5024L17.454 15.3524H15.7881C15.7881 15.3524 15.7608 15.3524 15.7459 15.3524C16.9755 13.6543 24.6703 0 24.6703 0L13.1653 16.2027Z" fill="#FD803A"/>
  <path d="M19.8938 4.80957L18.0742 6.63907L20.6995 6.99852C20.8557 6.72831 21.0093 6.4581 21.163 6.19037L19.8938 4.80957Z" fill="#FE9F15"/>
  <path d="M16.7957 7.92285L15.3926 9.33092L18.2955 11.1579C18.5558 10.7092 18.826 10.2457 19.1036 9.76723L16.7957 7.92285Z" fill="#FE9F15"/>
  <path d="M15.1672 9.47949L16.1018 10.4017L14.7755 11.6932L16.2802 13.3244L10.7422 19.1401L9.87699 18.2576L8.40447 19.6211L6.6543 18.0593L15.1672 9.47949Z" fill="white"/>
  <path d="M10.3254 6.12793L13.0052 8.80525L10.3254 11.4826L7.64062 8.7631L10.3254 6.12793Z" fill="#FD803A"/>
  <path d="M3.43555 10.846C4.14702 10.1295 4.87832 9.39574 5.59475 8.67188C6.31118 9.39078 7.04001 10.1196 7.75396 10.8336C7.04249 11.5426 6.30623 12.2739 5.57492 13.0027C4.87584 12.2986 4.1495 11.5649 3.43555 10.846Z" fill="#FEBE38"/>
  <path d="M8.87753 14.943L6.80509 17.0353L4.75 14.9554L6.81253 12.873L8.87753 14.943Z" fill="#03AFD4"/>
  <path d="M10.8054 14.1924L12.6027 15.9624L10.8128 17.7621L9.05273 15.9401L10.8054 14.1924Z" fill="#68C7E1"/>
  <path d="M12.9532 11.3193L14.6736 13.0472L12.9582 14.7726L11.2402 13.0224L12.9532 11.3193Z" fill="#03AFD4"/>
  <path d="M5.31787 16.736C4.8072 17.2541 4.27174 17.7945 3.74123 18.3349C3.21816 17.8044 2.69014 17.269 2.16211 16.731C2.68766 16.2154 3.23304 15.6824 3.77594 15.1494C4.27669 15.665 4.80224 16.2055 5.31787 16.736Z" fill="#FD803A"/>
  <path d="M9.01932 11.4648L10.3481 12.7911L8.9871 14.1372L7.64844 12.8233L9.01932 11.4648Z" fill="#FD803A"/>
  <path d="M3.13568 14.2241C2.77871 13.8597 2.40686 13.4779 2.04492 13.1086C2.42173 12.7318 2.81093 12.345 3.18526 11.9707C3.55215 12.3277 3.93888 12.7045 4.32312 13.0813C3.9364 13.4556 3.54719 13.83 3.13568 14.2241Z" fill="#FD803A"/>
  <path d="M3.83753 8.16078C3.48799 7.80877 3.13349 7.45179 2.79883 7.11217C3.15828 6.76263 3.52765 6.39822 3.87719 6.05859C4.19202 6.37591 4.55644 6.7428 4.90102 7.08986C4.57379 7.41956 4.2069 7.78893 3.83753 8.16078Z" fill="#FEBE38"/>
  <path d="M13.9514 9.31055L14.8141 10.1757L13.9142 11.026L13.0664 10.1881L13.9514 9.31055Z" fill="#68C7E1"/>
  <path d="M7.30808 5.90234C7.60804 6.2023 7.90552 6.49978 8.19556 6.78982C7.92039 7.06251 7.62539 7.35008 7.36262 7.61037C7.07753 7.33025 6.77014 7.03029 6.47266 6.73777C6.73047 6.48243 7.02795 6.18495 7.30808 5.90234Z" fill="#FEBE38"/>
  <path d="M1.80432 9.31348L2.60752 10.1539L1.71756 11.0364L0.894531 10.201L1.80432 9.31348Z" fill="#FEBE38"/>
  <path d="M9.13411 17.8909L8.29869 18.7388L7.4707 17.8612L8.321 17.0332L9.13411 17.8909Z" fill="#32B1DB"/>
</svg>