<svg xmlns="http://www.w3.org/2000/svg" width="24" height="24" viewBox="0 0 24 24" fill="none">
  <path d="M15.5327 10.528C15.8243 10.2338 15.8222 9.75889 15.528 9.46731C15.2338 9.17573 14.7589 9.17784 14.4673 9.47204L12.72 11.235C12.0109 11.9505 11.5228 12.4413 11.1093 12.7734C10.7076 13.096 10.4496 13.2067 10.2185 13.2361C10.0734 13.2546 9.92659 13.2546 9.7815 13.2361C9.55042 13.2067 9.2924 13.096 8.89071 12.7734C8.47718 12.4413 7.98914 11.9505 7.28 11.235L5.53269 9.47204C5.24111 9.17784 4.76624 9.17573 4.47204 9.46731C4.17784 9.75889 4.17573 10.2338 4.46731 10.528L6.24609 12.3227C6.91604 12.9987 7.46359 13.5511 7.95146 13.9429C8.45879 14.3504 8.97373 14.6453 9.59184 14.7241C9.86287 14.7586 10.1371 14.7586 10.4082 14.7241C11.0263 14.6453 11.5412 14.3504 12.0485 13.9429C12.5364 13.5511 13.084 12.9987 13.7539 12.3227L15.5327 10.528Z" fill="white"/>
</svg>