<svg width="25" height="24" viewBox="0 0 25 24" fill="none" xmlns="http://www.w3.org/2000/svg">
<path d="M16.4008 10V6.08268M8.40079 10V6.08268M8.40079 6.08268V5C8.40079 2.79086 10.1917 1 12.4008 1C14.6099 1 16.4008 2.79086 16.4008 5V6.08268M8.40079 6.08268C9.1875 6 10.19 6 11.5887 6H13.2129C14.6116 6 15.6141 6 16.4008 6.08268M8.40079 6.08268C7.79874 6.14596 7.32307 6.25766 6.89295 6.45483C6.01866 6.85563 5.27851 7.50008 4.76125 8.31092C4.17425 9.23109 4.00442 10.4539 3.66476 12.8995C3.22858 16.0399 3.0105 17.6101 3.49002 18.8297C3.911 19.9003 4.68829 20.793 5.69083 21.3573C6.8328 22 8.4181 22 11.5887 22H13.2129C16.3835 22 17.9688 22 19.1108 21.3573C20.1133 20.793 20.8906 19.9003 21.3116 18.8297C21.7911 17.6101 21.573 16.0399 21.1368 12.8995C20.7972 10.4539 20.6273 9.23109 20.0403 8.31092C19.5231 7.50008 18.7829 6.85563 17.9086 6.45483C17.4785 6.25766 17.0028 6.14596 16.4008 6.08268" stroke="#FAFAFA" stroke-width="1.5" stroke-linecap="round"/>
</svg>
