<svg width="25" height="24" viewBox="0 0 25 24" fill="none" xmlns="http://www.w3.org/2000/svg">
<path d="M8.58948 6.70105C8.97668 6.55391 9.17129 6.12074 9.02415 5.73354C8.87701 5.34635 8.44384 5.15174 8.05664 5.29888C7.48589 5.51577 6.93408 5.8684 6.41786 6.38021C5.76353 7.02896 5.32758 7.76564 5.08396 8.55569C4.9619 8.95151 5.18383 9.37133 5.57965 9.49339C5.97547 9.61545 6.3953 9.39352 6.51735 8.9977C6.68732 8.44654 6.99222 7.92304 7.47397 7.44541C7.85225 7.07036 8.22878 6.83812 8.58948 6.70105Z" fill="white"/>
<path fill-rule="evenodd" clip-rule="evenodd" d="M21.6476 3.93557C20.3201 2.58173 18.8422 2.16291 17.4543 2.26451C16.1039 2.36337 14.8878 2.94914 13.9996 3.51257C13.2991 3.95689 12.3021 3.95689 11.6017 3.51257C10.7135 2.94915 9.49738 2.36338 8.14702 2.26453C6.75912 2.16293 5.28124 2.58175 3.95368 3.93557C2.3864 5.53386 1.89468 7.50689 2.09214 9.50265C2.28732 11.4754 3.15264 13.4808 4.30676 15.2578C5.46395 17.0396 6.94214 18.6392 8.42511 19.8008C9.87545 20.9368 11.4535 21.75 12.8007 21.75C14.1479 21.75 15.7259 20.9368 17.1762 19.8008C18.6592 18.6392 20.1374 17.0396 21.2946 15.2578C22.4487 13.4808 23.314 11.4754 23.5092 9.50265C23.7066 7.50688 23.2149 5.53386 21.6476 3.93557ZM14.8031 4.77922C15.5885 4.28097 16.5607 3.83394 17.5638 3.76051C18.5293 3.68983 19.57 3.95923 20.5766 4.98579C21.7799 6.21282 22.1782 7.71987 22.0165 9.35497C21.8524 11.0131 21.1092 12.7893 20.0366 14.4408C18.9671 16.0876 17.6003 17.5632 16.2513 18.6199C14.8696 19.7021 13.6286 20.25 12.8007 20.25C11.9728 20.25 10.7317 19.7021 9.35005 18.6199C8.001 17.5632 6.63426 16.0876 5.56472 14.4408C4.4921 12.7893 3.7489 11.0131 3.58485 9.35497C3.42308 7.71987 3.82145 6.21283 5.02468 4.98579C6.03131 3.95925 7.07197 3.68984 8.0375 3.76052C9.04056 3.83395 10.0128 4.28098 10.7982 4.77922C11.9891 5.53467 13.6121 5.53467 14.8031 4.77922Z" fill="white"/>
</svg>
