<svg width="26" height="26" viewBox="0 0 26 26" fill="none" xmlns="http://www.w3.org/2000/svg">
<path d="M7.02291 5.63119C4.22911 7.66101 2.8322 8.67592 2.28356 10.1751C2.23955 10.2953 2.19996 10.4172 2.16488 10.5403C1.72755 12.0757 2.26112 13.7178 3.32826 17.0022C4.3954 20.2865 4.92897 21.9286 6.18522 22.9137C6.286 22.9927 6.38964 23.068 6.49593 23.1394C6.9429 23.4398 7.43556 23.6388 8.02479 23.7707V20.145C8.02479 17.3967 10.2527 15.1688 13.001 15.1688C15.7493 15.1688 17.9772 17.3967 17.9772 20.145V23.7707C18.5664 23.6388 19.0591 23.4398 19.506 23.1394C19.6123 23.068 19.716 22.9927 19.8167 22.9137C21.073 21.9286 21.6066 20.2865 22.6737 17.0022C23.7408 13.7178 24.2744 12.0757 23.8371 10.5403C23.802 10.4172 23.7624 10.2953 23.7184 10.1751C23.1698 8.67592 21.7729 7.66101 18.9791 5.6312C16.1853 3.60138 14.7883 2.58646 13.193 2.52794C13.065 2.52324 12.9369 2.52324 12.809 2.52794C11.2136 2.58646 9.81672 3.60137 7.02291 5.63119Z" fill="#FE9F15"/>
<path d="M16.4057 23.9725V20.145C16.4057 18.2646 14.8814 16.7402 13.001 16.7402C11.1206 16.7402 9.59622 18.2646 9.59622 20.145V23.9725C10.5107 24.0298 11.6172 24.0298 13.001 24.0298C14.3847 24.0298 15.4912 24.0298 16.4057 23.9725Z" fill="#FE9F15"/>
</svg>
