<svg width="20" height="22" viewBox="0 0 20 22" fill="none" xmlns="http://www.w3.org/2000/svg">
<path d="M3.26225 20.0451L3.70308 19.4383L3.26225 20.0451ZM2.15609 18.9389L2.76285 18.4981L2.15609 18.9389ZM18.2463 18.9389L17.6395 18.4981L18.2463 18.9389ZM17.1401 20.0451L16.6993 19.4383L17.1401 20.0451ZM17.1401 1.95491L17.5809 1.34815L17.1401 1.95491ZM18.2463 3.06107L17.6395 3.50191L18.2463 3.06107ZM3.26225 1.95491L3.70308 2.56168L3.26225 1.95491ZM2.15609 3.06107L2.76285 3.50191L2.15609 3.06107ZM11.3473 5.59531L11.4646 6.33608L11.3473 5.59531ZM9.78297 5.59531L9.66564 6.33608L9.78297 5.59531ZM11.2012 14.25C10.787 14.25 10.4512 14.5858 10.4512 15C10.4512 15.4142 10.787 15.75 11.2012 15.75V14.25ZM14.2012 15.75C14.6154 15.75 14.9512 15.4142 14.9512 15C14.9512 14.5858 14.6154 14.25 14.2012 14.25V15.75ZM6.20117 10.25C5.78696 10.25 5.45117 10.5858 5.45117 11C5.45117 11.4142 5.78696 11.75 6.20117 11.75V10.25ZM14.2012 11.75C14.6154 11.75 14.9512 11.4142 14.9512 11C14.9512 10.5858 14.6154 10.25 14.2012 10.25V11.75ZM18.4512 10V12H19.9512V10H18.4512ZM1.95117 12V10H0.451172V12H1.95117ZM10.2012 20.25C8.3096 20.25 6.95116 20.249 5.89922 20.135C4.86131 20.0225 4.21109 19.8074 3.70308 19.4383L2.82141 20.6518C3.62773 21.2377 4.57211 21.5 5.73765 21.6263C6.88915 21.751 8.34301 21.75 10.2012 21.75V20.25ZM0.451172 12C0.451172 13.8582 0.450142 15.312 0.5749 16.4635C0.701178 17.6291 0.963496 18.5734 1.54932 19.3798L2.76285 18.4981C2.39376 17.9901 2.17862 17.3399 2.06617 16.302C1.9522 15.25 1.95117 13.8916 1.95117 12H0.451172ZM3.70308 19.4383C3.34228 19.1762 3.02499 18.8589 2.76285 18.4981L1.54932 19.3798C1.90398 19.8679 2.33326 20.2972 2.82141 20.6518L3.70308 19.4383ZM18.4512 12C18.4512 13.8916 18.4501 15.25 18.3362 16.302C18.2237 17.3399 18.0086 17.9901 17.6395 18.4981L18.853 19.3798C19.4388 18.5734 19.7012 17.6291 19.8274 16.4635C19.9522 15.312 19.9512 13.8582 19.9512 12H18.4512ZM10.2012 21.75C12.0593 21.75 13.5132 21.751 14.6647 21.6263C15.8302 21.5 16.7746 21.2377 17.5809 20.6518L16.6993 19.4383C16.1913 19.8074 15.541 20.0225 14.5031 20.135C13.4512 20.249 12.0927 20.25 10.2012 20.25V21.75ZM17.6395 18.4981C17.3774 18.8589 17.0601 19.1762 16.6993 19.4383L17.5809 20.6518C18.0691 20.2972 18.4984 19.8679 18.853 19.3798L17.6395 18.4981ZM19.9512 10C19.9512 8.14184 19.9522 6.68798 19.8274 5.53648C19.7012 4.37094 19.4388 3.42656 18.853 2.62023L17.6395 3.50191C18.0086 4.00992 18.2237 4.66013 18.3362 5.69804C18.4501 6.74999 18.4512 8.10843 18.4512 10H19.9512ZM16.6993 2.56168C17.0601 2.82382 17.3774 3.14111 17.6395 3.50191L18.853 2.62023C18.4984 2.13209 18.0691 1.70281 17.5809 1.34815L16.6993 2.56168ZM1.95117 10C1.95117 8.10843 1.9522 6.74999 2.06617 5.69804C2.17862 4.66013 2.39376 4.00992 2.76285 3.50191L1.54932 2.62023C0.963496 3.42656 0.701178 4.37094 0.5749 5.53648C0.450142 6.68798 0.451172 8.14184 0.451172 10H1.95117ZM2.82141 1.34815C2.33326 1.70281 1.90398 2.13209 1.54932 2.62023L2.76285 3.50191C3.02499 3.14111 3.34228 2.82382 3.70308 2.56168L2.82141 1.34815ZM11.23 4.85454C10.7895 4.92431 10.3408 4.92431 9.90029 4.85454L9.66564 6.33608C10.2616 6.43047 10.8687 6.43047 11.4646 6.33608L11.23 4.85454ZM16.1115 1.12083C14.8713 2.36015 13.9675 3.25006 13.1868 3.8649C12.4172 4.47095 11.8274 4.75993 11.23 4.85454L11.4646 6.33608C12.4128 6.1859 13.2391 5.73301 14.1149 5.04333C14.9794 4.36245 15.95 3.40277 17.1718 2.18187L16.1115 1.12083ZM10.2012 1.75C11.8629 1.75 13.1161 1.75053 14.1161 1.82911C15.1136 1.9075 15.7856 2.05963 16.304 2.32103L16.9793 0.981678C16.206 0.591725 15.3082 0.418172 14.2336 0.333724C13.1615 0.249471 11.8402 0.25 10.2012 0.25V1.75ZM16.304 2.32103C16.4443 2.3918 16.5751 2.4715 16.6993 2.56168L17.5809 1.34815C17.3903 1.20967 17.1904 1.08809 16.9793 0.981678L16.304 2.32103ZM3.74307 1.96653C5.03363 3.25703 6.04662 4.26842 6.93959 4.98311C7.8436 5.70666 8.69021 6.18158 9.66564 6.33608L9.90029 4.85454C9.28576 4.75721 8.67931 4.45425 7.87689 3.81202C7.06342 3.16095 6.11661 2.21868 4.80371 0.905846L3.74307 1.96653ZM10.2012 0.25C8.76488 0.25 7.57486 0.249733 6.58601 0.305723C5.59788 0.361672 4.7575 0.47576 4.02876 0.727205L4.51802 2.14517C5.05344 1.96043 5.73304 1.85642 6.67081 1.80332C7.60785 1.75027 8.74965 1.75 10.2012 1.75V0.25ZM4.02876 0.727205C3.58816 0.879231 3.18906 1.08103 2.82141 1.34815L3.70308 2.56168C3.93965 2.3898 4.20401 2.25352 4.51802 2.14517L4.02876 0.727205ZM11.2012 15.75H14.2012V14.25H11.2012V15.75ZM6.20117 11.75L14.2012 11.75V10.25L6.20117 10.25V11.75Z" fill="white"/>
</svg>
