<svg width="25" height="24" viewBox="0 0 25 24" fill="none" xmlns="http://www.w3.org/2000/svg">
<path fill-rule="evenodd" clip-rule="evenodd" d="M12.5996 1.25C9.97626 1.25 7.84961 3.37665 7.84961 6C7.84961 8.62335 9.97626 10.75 12.5996 10.75C15.223 10.75 17.3496 8.62335 17.3496 6C17.3496 3.37665 15.223 1.25 12.5996 1.25ZM9.34961 6C9.34961 4.20507 10.8047 2.75 12.5996 2.75C14.3945 2.75 15.8496 4.20507 15.8496 6C15.8496 7.79493 14.3945 9.25 12.5996 9.25C10.8047 9.25 9.34961 7.79493 9.34961 6Z" fill="white"/>
<path fill-rule="evenodd" clip-rule="evenodd" d="M9.59961 12.25C6.97626 12.25 4.84961 14.3766 4.84961 17C4.84961 19.6234 6.97626 21.75 9.59961 21.75H15.5996C18.223 21.75 20.3496 19.6234 20.3496 17C20.3496 14.3766 18.223 12.25 15.5996 12.25H9.59961ZM6.34961 17C6.34961 15.2051 7.80468 13.75 9.59961 13.75H15.5996C17.3945 13.75 18.8496 15.2051 18.8496 17C18.8496 18.7949 17.3945 20.25 15.5996 20.25H9.59961C7.80468 20.25 6.34961 18.7949 6.34961 17Z" fill="white"/>
</svg>
