<svg xmlns="http://www.w3.org/2000/svg" width="19" height="19" viewBox="0 0 19 19" fill="none">
  <path d="M6.78057 4.00258C7.1215 3.94859 7.3541 3.62844 7.3001 3.28751C7.2461 2.94658 6.92595 2.71398 6.58502 2.76797C4.53471 3.09271 2.92667 4.70075 2.60193 6.75106C2.54794 7.09199 2.78054 7.41214 3.12147 7.46614C3.46239 7.52014 3.78255 7.28754 3.83654 6.94661C4.07657 5.43116 5.26511 4.24261 6.78057 4.00258Z" fill="#6F6F6F"/>
  <path fill-rule="evenodd" clip-rule="evenodd" d="M8.16797 0.208984C3.68066 0.208984 0.0429688 3.84667 0.0429688 8.33398C0.0429688 12.8213 3.68066 16.459 8.16797 16.459C12.6553 16.459 16.293 12.8213 16.293 8.33398C16.293 3.84667 12.6553 0.208984 8.16797 0.208984ZM1.29297 8.33398C1.29297 4.53703 4.37101 1.45898 8.16797 1.45898C11.9649 1.45898 15.043 4.53703 15.043 8.33398C15.043 12.1309 11.9649 15.209 8.16797 15.209C4.37101 15.209 1.29297 12.1309 1.29297 8.33398Z" fill="#6F6F6F"/>
  <path d="M15.2766 14.5588C15.0326 14.3147 14.6368 14.3147 14.3928 14.5588C14.1487 14.8029 14.1487 15.1986 14.3927 15.4427L17.726 18.776C17.9701 19.02 18.3658 19.02 18.6099 18.776C18.854 18.5319 18.854 18.1362 18.6099 17.8921L15.2766 14.5588Z" fill="#6F6F6F"/>
</svg>